<svg viewBox="0 0 120 120" xmlns="http://www.w3.org/2000/svg" xmlns:xlink="http://www.w3.org/1999/xlink" width="120.000000" height="120.000000" fill="none">
	<rect id="Logo" width="120.000000" height="120.000000" x="0.000000" y="0.000000" />
	<ellipse id="ellipse" rx="60.000004" ry="6.500000" cx="60.0000038" cy="113.5" fill="rgb(136,136,136)" />
	<path id="polygon" d="M1.08105 85.4L59.4594 110L59.4594 52.6L1.08105 28L1.08105 85.4Z" fill="rgb(38,45,51)" fill-rule="nonzero" />
	<path id="polygon" d="M59.4594 110L59.4594 52.6L1.08105 28L1.08105 85.4L59.4594 110Z" fill-rule="nonzero" stroke="rgb(0,0,0)" stroke-opacity="0.706285596" stroke-width="2" />
	<path id="polygon" d="M60.9524 110L119.331 85.4L119.331 28L60.9524 52.6L60.9524 110Z" fill="rgb(136,136,136)" fill-rule="nonzero" />
	<path id="polygon" d="M119.331 85.4L119.331 28L60.9524 52.6L60.9524 110L119.331 85.4Z" fill-rule="nonzero" stroke="rgb(0,0,0)" stroke-opacity="0.699999988" stroke-width="2" />
	<path id="polygon" d="M0 27.5932L60 52L120 27.5932L60 4L0 27.5932Z" fill="rgb(136,136,136)" fill-rule="nonzero" />
	<path id="polygon" d="M60 52L120 27.5932L60 4L0 27.5932L60 52Z" fill-rule="nonzero" stroke="rgb(0,0,0)" stroke-opacity="0.699999988" stroke-width="2" />
</svg>
